<?xml version="1.0" standalone="no"?>
<!DOCTYPE svg PUBLIC "-//W3C//DTD SVG 20010904//EN"
 "http://www.w3.org/TR/2001/REC-SVG-20010904/DTD/svg10.dtd">
<svg version="1.0" xmlns="http://www.w3.org/2000/svg"
 width="48.000000pt" height="48.000000pt" viewBox="0 0 48.000000 48.000000"
 preserveAspectRatio="xMidYMid meet">

<g transform="translate(0.000000,48.000000) scale(0.100000,-0.100000)"
fill="#000000" stroke="none">
<path d="M176 425 c-126 -45 -175 -206 -92 -302 l24 -28 22 28 c60 76 161 75
222 -3 l24 -30 26 41 c54 84 45 175 -26 245 -59 60 -125 76 -200 49z m111 -70
c26 -18 38 -67 23 -94 -28 -53 -88 -63 -130 -21 -64 64 33 167 107 115z"/>
</g>
</svg>
