<svg id="svg" version="1.1" xmlns="http://www.w3.org/2000/svg" xmlns:xlink="http://www.w3.org/1999/xlink" width="400" height="76.41144624903326" viewBox="0, 0, 400,76.41144624903326"><g id="svgg"><path id="path0" d="M295.448 11.337 C 293.284 11.725,293.259 11.844,293.203 21.940 L 293.155 30.463 292.215 29.477 C 290.779 27.972,287.727 26.072,286.213 25.741 C 285.958 25.685,285.563 25.570,285.333 25.485 C 283.970 24.978,278.970 25.043,277.071 25.592 C 266.748 28.577,262.256 41.821,268.382 51.218 C 270.675 54.736,274.149 57.091,278.667 58.192 C 280.015 58.520,284.967 58.473,286.167 58.121 C 286.671 57.973,287.383 57.765,287.750 57.658 C 288.637 57.402,291.494 56.008,291.833 55.666 C 291.879 55.620,292.228 55.371,292.609 55.113 C 294.728 53.676,297.250 50.132,298.144 47.333 C 298.947 44.821,298.911 45.615,298.961 29.000 C 299.006 14.022,298.995 13.394,298.695 12.838 C 298.041 11.628,296.862 11.083,295.448 11.337 M371.432 11.297 C 370.612 11.404,369.867 11.963,369.438 12.792 C 369.191 13.269,369.167 15.276,369.167 34.884 L 369.167 56.451 369.546 57.013 C 370.565 58.525,372.704 58.839,374.012 57.667 C 374.839 56.926,374.833 56.996,374.833 47.022 C 374.833 35.098,374.884 34.854,377.847 32.476 C 380.411 30.418,385.461 29.613,388.250 30.816 C 388.433 30.895,388.890 31.087,389.265 31.243 C 390.544 31.775,392.257 33.463,392.951 34.876 C 394.263 37.547,394.326 38.162,394.330 48.267 L 394.333 56.451 394.712 57.013 C 395.960 58.865,398.527 58.807,399.625 56.901 L 400.000 56.250 399.944 46.750 C 399.879 35.713,399.909 35.994,398.491 32.760 C 396.969 29.290,394.002 26.858,389.655 25.517 C 387.809 24.948,382.595 25.021,380.702 25.642 C 378.961 26.214,376.996 27.160,376.500 27.665 C 376.454 27.712,376.060 28.036,375.625 28.386 L 374.833 29.022 374.831 21.136 C 374.828 13.284,374.826 13.247,374.456 12.596 C 373.893 11.608,372.765 11.124,371.432 11.297 M52.833 19.102 C 52.512 19.138,51.931 19.210,51.542 19.261 L 50.833 19.354 50.833 27.517 C 50.833 36.701,50.866 36.450,49.556 37.449 L 48.943 37.917 40.567 37.963 L 32.191 38.009 32.079 38.520 C 31.933 39.186,31.933 43.318,32.080 43.984 L 32.193 44.500 40.888 44.499 C 51.467 44.497,52.216 44.343,54.761 41.641 C 57.288 38.957,57.367 38.562,57.454 28.146 L 57.528 19.376 56.972 19.279 C 56.160 19.138,53.510 19.025,52.833 19.102 M317.167 25.176 C 315.697 25.288,313.869 25.651,313.083 25.988 C 310.955 26.900,309.750 27.583,308.544 28.562 C 307.906 29.080,306.161 30.865,305.734 31.436 C 305.468 31.792,305.158 32.181,305.046 32.299 C 304.692 32.674,303.328 35.612,303.019 36.667 C 301.518 41.780,302.549 48.109,305.543 52.167 C 306.267 53.148,308.148 55.083,308.833 55.552 C 312.067 57.765,313.671 58.322,317.167 58.451 C 322.371 58.643,326.114 57.225,329.140 53.914 L 330.000 52.973 330.000 54.670 C 330.000 56.610,330.203 57.214,331.051 57.790 C 332.310 58.647,334.108 58.428,335.074 57.300 L 335.667 56.607 335.667 48.034 L 335.667 39.462 335.235 37.705 C 334.998 36.738,334.741 35.828,334.664 35.682 C 334.588 35.536,334.278 34.892,333.976 34.250 C 331.686 29.386,326.543 25.636,321.627 25.243 C 319.495 25.073,318.681 25.061,317.167 25.176 M350.533 25.175 C 345.332 25.600,341.828 27.882,340.308 31.833 C 339.603 33.667,340.242 37.038,341.631 38.812 C 342.204 39.544,343.819 41.000,344.058 41.000 C 344.115 41.000,344.519 41.215,344.956 41.478 C 346.436 42.369,349.204 43.244,352.395 43.829 C 357.573 44.780,360.000 46.412,360.000 48.944 C 360.000 52.959,352.711 54.808,347.037 52.233 C 346.553 52.013,346.110 51.833,346.052 51.833 C 345.907 51.833,344.195 50.537,343.583 49.964 C 342.131 48.603,339.777 49.185,338.908 51.120 C 338.301 52.470,339.009 53.889,340.917 55.142 C 341.283 55.383,341.621 55.625,341.667 55.680 C 341.751 55.780,343.765 56.746,344.458 57.019 C 344.665 57.100,345.002 57.237,345.208 57.324 C 349.037 58.927,356.865 58.782,360.056 57.049 C 363.434 55.213,364.895 53.342,365.469 50.115 C 366.418 44.787,361.925 40.337,354.500 39.249 C 354.087 39.188,353.488 39.074,353.167 38.994 C 352.846 38.915,352.058 38.724,351.417 38.571 C 347.934 37.740,345.973 36.463,345.734 34.868 C 344.946 29.615,354.612 28.231,359.583 32.885 C 362.055 35.199,365.813 33.519,364.595 30.645 C 364.135 29.561,361.688 27.520,359.750 26.604 C 357.784 25.675,356.763 25.389,354.917 25.254 C 354.183 25.200,353.246 25.131,352.833 25.102 C 352.421 25.072,351.386 25.105,350.533 25.175 M321.750 30.440 C 326.697 31.715,330.057 36.281,330.072 41.750 C 330.111 55.292,312.279 57.954,308.304 45.000 C 305.740 36.646,313.447 28.301,321.750 30.440 M284.688 30.441 C 292.325 32.148,295.878 41.184,291.659 48.171 C 291.356 48.673,290.983 49.207,290.830 49.357 C 290.677 49.508,290.409 49.809,290.234 50.026 C 289.743 50.637,288.325 51.760,287.562 52.141 C 285.885 52.981,285.136 53.175,282.667 53.407 C 279.217 53.731,274.908 51.459,273.047 48.333 C 272.015 46.601,271.910 46.331,271.488 44.341 C 269.713 35.966,276.662 28.648,284.688 30.441 " stroke="none" fill="#3c64c4" fill-rule="evenodd"></path><path id="path1" d="M35.195 0.137 C 35.427 0.232,35.232 0.631,33.996 2.583 C 32.085 5.602,32.028 5.697,31.901 6.042 C 31.843 6.202,31.634 6.350,31.439 6.371 C 31.243 6.391,35.135 6.448,40.088 6.496 C 49.662 6.589,49.151 6.544,49.970 7.363 C 50.388 7.781,50.584 8.047,50.747 8.417 C 50.903 8.773,50.924 8.864,51.098 9.959 L 51.211 10.667 51.952 9.542 C 52.359 8.923,53.223 7.554,53.872 6.500 C 54.521 5.446,55.140 4.471,55.247 4.333 C 55.472 4.044,55.394 3.500,55.127 3.500 C 55.026 3.500,54.987 3.457,55.039 3.406 C 55.130 3.315,54.428 2.563,53.691 1.962 C 52.980 1.382,52.062 0.883,51.167 0.591 C 50.663 0.426,50.078 0.226,49.867 0.146 C 49.422 -0.024,34.779 -0.033,35.195 0.137 M110.953 10.770 C 110.901 10.821,110.216 10.864,109.430 10.864 C 108.644 10.864,107.963 10.925,107.917 11.000 C 107.871 11.074,107.684 11.096,107.502 11.049 C 107.320 11.001,107.039 11.017,106.877 11.084 C 106.716 11.152,106.396 11.232,106.167 11.264 C 105.093 11.411,103.472 11.824,103.333 11.986 C 103.287 12.039,103.100 12.110,102.917 12.142 C 102.733 12.174,102.537 12.274,102.481 12.364 C 102.425 12.455,102.332 12.522,102.273 12.514 C 102.215 12.506,102.129 12.509,102.083 12.521 C 102.037 12.532,101.944 12.553,101.875 12.568 C 101.657 12.613,100.010 13.478,99.792 13.661 C 99.677 13.758,99.376 13.992,99.123 14.182 C 98.870 14.372,98.713 14.607,98.774 14.706 C 98.838 14.808,98.807 14.837,98.702 14.772 C 98.494 14.643,97.833 15.284,97.833 15.615 C 97.833 15.735,97.770 15.815,97.694 15.792 C 97.617 15.769,97.335 16.009,97.069 16.326 C 96.802 16.643,96.696 16.842,96.833 16.770 C 96.971 16.697,96.930 16.775,96.743 16.944 C 96.201 17.431,95.853 17.930,96.167 17.770 C 96.376 17.663,96.375 17.678,96.160 17.863 C 95.806 18.166,95.293 19.300,95.418 19.502 C 95.474 19.592,95.445 19.667,95.353 19.667 C 95.261 19.667,95.215 19.817,95.250 20.000 C 95.285 20.183,95.235 20.333,95.139 20.333 C 95.037 20.333,94.992 20.574,95.030 20.905 C 95.067 21.219,95.035 21.438,94.958 21.391 C 94.882 21.344,94.854 22.266,94.895 23.439 C 94.939 24.695,95.040 25.597,95.142 25.631 C 95.237 25.662,95.269 25.808,95.212 25.955 C 95.148 26.121,95.177 26.180,95.289 26.110 C 95.400 26.042,95.439 26.112,95.392 26.293 C 95.305 26.625,96.111 28.500,96.340 28.500 C 96.422 28.500,96.449 28.605,96.400 28.733 C 96.351 28.861,96.456 29.067,96.633 29.191 C 96.810 29.315,96.959 29.492,96.964 29.583 C 96.978 29.855,98.232 31.316,98.458 31.325 C 98.573 31.330,98.667 31.427,98.667 31.542 C 98.667 31.656,98.892 31.900,99.167 32.083 C 99.441 32.267,99.666 32.473,99.666 32.542 C 99.666 32.610,99.741 32.667,99.831 32.667 C 99.922 32.667,100.149 32.798,100.337 32.958 C 100.524 33.119,100.731 33.245,100.797 33.238 C 100.863 33.232,101.016 33.325,101.137 33.446 C 101.258 33.568,101.498 33.667,101.670 33.667 C 101.843 33.667,102.043 33.767,102.117 33.889 C 102.308 34.209,104.152 35.041,104.432 34.934 C 104.561 34.884,104.667 34.914,104.667 35.000 C 104.667 35.086,104.791 35.108,104.944 35.050 C 105.130 34.978,105.182 35.007,105.101 35.138 C 104.986 35.324,105.111 35.362,105.958 35.403 C 106.119 35.410,106.298 35.483,106.357 35.564 C 106.416 35.645,106.765 35.732,107.134 35.759 C 107.503 35.785,107.965 35.892,108.160 35.996 C 108.355 36.101,109.148 36.200,109.923 36.218 C 110.698 36.236,111.332 36.300,111.333 36.360 C 111.333 36.421,111.652 36.520,112.042 36.580 C 112.431 36.641,112.975 36.757,113.250 36.839 C 113.964 37.052,114.703 37.197,115.045 37.191 C 115.208 37.189,115.304 37.246,115.259 37.319 C 115.177 37.452,116.477 37.950,116.708 37.874 C 116.777 37.852,116.833 37.904,116.833 37.991 C 116.833 38.078,117.252 38.427,117.764 38.766 C 118.275 39.106,118.850 39.595,119.040 39.852 C 119.231 40.110,119.451 40.280,119.531 40.231 C 119.610 40.182,119.654 40.204,119.629 40.279 C 119.604 40.355,119.767 40.717,119.991 41.083 C 120.438 41.816,120.411 41.763,120.584 42.292 C 120.651 42.498,120.753 42.667,120.811 42.667 C 120.869 42.667,120.929 42.871,120.943 43.120 C 120.957 43.369,121.036 43.595,121.118 43.623 C 121.199 43.650,121.235 43.934,121.198 44.255 C 121.159 44.585,121.223 44.951,121.346 45.098 C 121.491 45.273,121.505 45.396,121.388 45.471 C 121.292 45.533,121.211 45.883,121.209 46.250 C 121.206 46.617,121.129 47.104,121.038 47.333 C 120.948 47.563,120.899 47.891,120.931 48.064 C 120.963 48.237,120.944 48.333,120.888 48.277 C 120.749 48.138,120.182 49.212,120.295 49.401 C 120.344 49.484,120.307 49.504,120.212 49.445 C 120.117 49.386,119.862 49.598,119.645 49.916 C 119.428 50.234,118.875 50.776,118.417 51.122 C 117.958 51.467,117.558 51.807,117.527 51.876 C 117.497 51.945,117.403 51.960,117.319 51.908 C 117.235 51.856,117.167 51.881,117.167 51.962 C 117.167 52.044,117.073 52.112,116.958 52.113 C 116.844 52.114,116.398 52.277,115.967 52.474 C 115.537 52.672,115.106 52.833,115.009 52.833 C 114.912 52.833,114.833 52.896,114.833 52.972 C 114.833 53.049,114.740 53.113,114.625 53.115 C 114.510 53.117,114.004 53.204,113.500 53.308 C 112.709 53.472,109.233 53.612,108.750 53.500 C 108.658 53.479,108.508 53.449,108.417 53.434 C 106.681 53.146,104.788 52.570,103.619 51.975 C 103.272 51.799,102.905 51.706,102.802 51.769 C 102.698 51.834,102.661 51.810,102.719 51.717 C 102.802 51.583,102.354 51.275,101.834 51.110 C 101.789 51.095,101.301 50.638,100.751 50.094 C 100.200 49.550,99.688 49.121,99.613 49.140 C 99.537 49.159,99.517 49.107,99.569 49.024 C 99.620 48.941,99.513 48.683,99.331 48.452 C 99.149 48.220,99.000 47.946,99.000 47.843 C 99.000 47.740,98.888 47.613,98.751 47.561 C 98.614 47.508,98.540 47.404,98.586 47.329 C 98.722 47.108,97.446 46.146,97.125 46.228 C 96.946 46.274,96.876 46.233,96.944 46.123 C 97.013 46.010,96.954 45.982,96.783 46.048 C 96.633 46.105,96.466 46.080,96.412 45.993 C 96.276 45.773,95.718 45.793,95.281 46.034 C 95.080 46.144,94.815 46.251,94.690 46.272 C 94.362 46.326,93.661 47.023,93.766 47.192 C 93.815 47.271,93.739 47.380,93.597 47.434 C 93.311 47.544,93.250 49.167,93.532 49.167 C 93.617 49.167,93.643 49.236,93.590 49.322 C 93.538 49.407,93.571 49.524,93.664 49.582 C 93.757 49.639,93.833 49.821,93.833 49.985 C 93.833 50.150,94.002 50.473,94.208 50.703 C 94.415 50.933,94.608 51.224,94.638 51.350 C 94.726 51.718,96.064 53.317,96.292 53.325 C 96.406 53.330,96.481 53.399,96.458 53.480 C 96.409 53.654,97.280 54.500,97.509 54.500 C 97.596 54.500,97.667 54.579,97.667 54.677 C 97.667 54.774,97.742 54.807,97.833 54.750 C 97.925 54.693,98.000 54.729,98.000 54.829 C 98.000 55.027,99.171 55.776,99.375 55.708 C 99.444 55.685,99.500 55.738,99.500 55.826 C 99.500 56.005,100.582 56.556,100.935 56.556 C 101.062 56.556,101.128 56.595,101.080 56.642 C 100.946 56.776,102.321 57.360,102.505 57.247 C 102.594 57.192,102.667 57.234,102.667 57.341 C 102.667 57.448,102.783 57.491,102.925 57.436 C 103.068 57.382,103.143 57.403,103.094 57.483 C 103.044 57.563,103.172 57.667,103.377 57.715 C 103.582 57.762,104.254 57.947,104.870 58.127 C 105.486 58.306,105.956 58.397,105.915 58.330 C 105.873 58.263,106.156 58.324,106.544 58.467 C 107.353 58.764,113.250 58.936,113.416 58.668 C 113.468 58.584,113.621 58.557,113.755 58.608 C 113.890 58.660,114.000 58.636,114.000 58.554 C 114.000 58.472,114.202 58.415,114.449 58.425 C 114.696 58.436,115.427 58.300,116.074 58.122 C 116.721 57.944,117.419 57.760,117.625 57.713 C 117.831 57.666,118.000 57.557,118.000 57.471 C 118.000 57.384,118.068 57.356,118.152 57.408 C 118.346 57.528,120.664 56.365,121.017 55.971 C 121.164 55.807,121.321 55.710,121.366 55.755 C 121.411 55.800,121.651 55.648,121.899 55.418 C 122.147 55.188,122.404 55.000,122.469 55.000 C 122.727 55.000,123.500 54.135,123.395 53.964 C 123.328 53.857,123.359 53.829,123.467 53.897 C 123.687 54.032,125.166 52.215,125.167 51.809 C 125.167 51.659,125.268 51.497,125.392 51.449 C 125.648 51.351,126.549 49.047,126.415 48.831 C 126.367 48.753,126.399 48.646,126.487 48.592 C 126.674 48.476,126.663 48.603,126.759 45.365 C 126.801 43.960,126.770 42.852,126.692 42.901 C 126.613 42.950,126.584 42.805,126.627 42.578 C 126.670 42.352,126.641 42.166,126.561 42.166 C 126.482 42.166,126.413 41.861,126.408 41.488 C 126.403 41.116,126.328 40.760,126.241 40.697 C 126.092 40.589,126.026 40.413,125.919 39.833 C 125.893 39.696,125.798 39.599,125.707 39.618 C 125.616 39.637,125.542 39.477,125.542 39.262 C 125.542 38.819,124.583 37.333,124.298 37.333 C 124.195 37.333,124.156 37.289,124.210 37.235 C 124.264 37.180,124.108 36.907,123.863 36.626 C 123.110 35.767,122.790 35.507,122.616 35.615 C 122.521 35.674,122.500 35.635,122.568 35.525 C 122.637 35.412,122.561 35.284,122.386 35.219 C 122.219 35.157,121.971 34.983,121.833 34.831 C 121.521 34.488,119.333 33.260,119.333 33.428 C 119.333 33.496,119.202 33.439,119.042 33.302 C 118.656 32.971,117.350 32.470,117.167 32.583 C 117.088 32.632,116.975 32.595,116.917 32.500 C 116.858 32.405,116.740 32.371,116.655 32.424 C 116.570 32.477,116.500 32.432,116.500 32.324 C 116.500 32.205,116.337 32.159,116.089 32.206 C 115.863 32.250,115.656 32.217,115.628 32.134 C 115.600 32.051,115.316 31.945,114.997 31.899 C 114.678 31.853,114.192 31.749,113.917 31.669 C 113.642 31.588,112.967 31.475,112.417 31.417 C 111.867 31.359,111.139 31.250,110.799 31.175 C 110.379 31.082,110.157 31.099,110.103 31.228 C 110.046 31.367,109.989 31.366,109.887 31.224 C 109.811 31.117,109.449 30.979,109.083 30.916 C 108.184 30.762,105.007 29.704,104.548 29.406 C 104.345 29.274,104.059 29.167,103.913 29.167 C 103.767 29.167,103.685 29.105,103.731 29.031 C 103.824 28.880,102.832 28.232,102.613 28.299 C 102.537 28.323,102.516 28.276,102.566 28.195 C 102.616 28.114,102.464 27.869,102.228 27.649 C 101.993 27.430,101.610 26.875,101.378 26.417 C 101.146 25.958,100.902 25.546,100.837 25.500 C 100.703 25.407,100.701 25.388,100.596 23.750 C 100.554 23.108,100.510 22.583,100.498 22.583 C 100.485 22.583,100.449 22.452,100.419 22.291 C 100.385 22.116,100.434 22.043,100.541 22.109 C 100.656 22.180,100.686 22.091,100.625 21.859 C 100.573 21.662,100.599 21.500,100.682 21.500 C 100.765 21.500,100.833 21.354,100.833 21.177 C 100.833 20.999,100.915 20.803,101.015 20.741 C 101.114 20.679,101.159 20.487,101.113 20.314 C 101.068 20.141,101.099 20.042,101.182 20.093 C 101.265 20.144,101.333 20.102,101.333 19.998 C 101.333 19.894,101.447 19.696,101.585 19.558 C 101.723 19.420,101.794 19.238,101.742 19.153 C 101.690 19.069,101.724 19.000,101.818 19.000 C 101.912 19.000,102.219 18.775,102.500 18.500 C 102.781 18.225,103.088 18.000,103.182 18.000 C 103.276 18.000,103.307 17.926,103.251 17.835 C 103.195 17.745,103.252 17.710,103.377 17.758 C 103.502 17.806,103.743 17.692,103.911 17.506 C 104.080 17.319,104.390 17.167,104.601 17.167 C 104.811 17.167,105.060 17.035,105.153 16.875 C 105.254 16.702,105.325 16.671,105.328 16.798 C 105.332 16.969,105.408 16.971,105.708 16.808 C 105.915 16.696,106.233 16.580,106.417 16.552 C 107.039 16.455,107.417 16.376,107.417 16.343 C 107.417 16.287,110.353 15.984,110.750 15.999 C 111.810 16.039,113.139 16.167,113.485 16.263 C 113.722 16.328,114.029 16.401,114.167 16.425 C 114.304 16.448,114.671 16.548,114.982 16.646 C 115.293 16.744,115.623 16.777,115.716 16.719 C 115.809 16.662,115.836 16.694,115.776 16.791 C 115.715 16.890,115.870 17.038,116.125 17.127 C 116.377 17.215,116.874 17.484,117.228 17.724 C 117.583 17.965,117.941 18.120,118.024 18.069 C 118.107 18.017,118.154 18.053,118.129 18.148 C 118.081 18.329,119.444 19.667,119.678 19.667 C 119.753 19.667,119.867 19.753,119.933 19.859 C 120.013 19.989,119.975 20.007,119.817 19.916 C 119.689 19.841,119.737 19.960,119.924 20.181 C 120.112 20.402,120.363 20.779,120.482 21.019 C 120.793 21.645,121.493 22.358,121.681 22.241 C 121.769 22.187,121.821 22.233,121.796 22.344 C 121.771 22.455,121.975 22.616,122.250 22.701 C 123.003 22.935,124.000 23.011,124.000 22.834 C 124.000 22.748,124.111 22.720,124.246 22.771 C 124.801 22.985,126.206 21.635,125.916 21.166 C 125.868 21.087,125.909 20.973,126.009 20.911 C 126.252 20.761,126.050 19.594,125.640 18.786 C 125.464 18.439,125.249 18.199,125.162 18.253 C 125.075 18.307,125.044 18.247,125.092 18.121 C 125.141 17.994,124.991 17.748,124.757 17.572 C 124.524 17.397,124.333 17.166,124.333 17.058 C 124.333 16.950,124.277 16.836,124.208 16.806 C 124.140 16.775,123.785 16.412,123.421 16.000 C 123.057 15.588,122.701 15.250,122.629 15.250 C 122.558 15.250,122.519 15.201,122.542 15.141 C 122.620 14.935,121.643 14.161,121.447 14.274 C 121.339 14.336,121.305 14.326,121.373 14.251 C 121.601 13.999,118.721 12.175,118.008 12.121 C 117.820 12.107,117.667 12.029,117.667 11.947 C 117.667 11.865,117.550 11.842,117.408 11.897 C 117.240 11.961,117.191 11.929,117.267 11.805 C 117.347 11.676,117.272 11.644,117.034 11.706 C 116.841 11.757,116.660 11.730,116.632 11.647 C 116.605 11.564,116.408 11.463,116.194 11.422 C 115.981 11.381,115.669 11.304,115.500 11.250 C 114.782 11.022,114.334 10.964,112.879 10.913 C 112.033 10.883,111.275 10.817,111.194 10.767 C 111.113 10.717,111.004 10.718,110.953 10.770 M249.333 15.118 C 249.104 15.236,248.935 15.405,248.956 15.494 C 248.978 15.582,248.895 15.616,248.773 15.569 C 248.007 15.275,247.779 16.665,247.712 22.042 L 247.656 26.500 245.953 26.501 C 244.233 26.502,242.916 26.729,243.081 26.997 C 243.131 27.077,243.020 27.191,242.834 27.250 C 242.066 27.493,241.727 29.390,242.292 30.280 C 242.828 31.124,243.256 31.243,245.583 31.191 L 247.750 31.143 247.705 38.916 C 247.669 45.164,247.702 46.665,247.872 46.563 C 248.038 46.463,248.037 46.493,247.868 46.702 C 247.749 46.848,247.690 47.144,247.737 47.359 C 247.783 47.574,247.866 48.123,247.920 48.580 C 247.975 49.036,248.071 49.448,248.135 49.496 C 248.198 49.544,248.260 49.822,248.273 50.113 C 248.303 50.796,248.833 52.187,249.019 52.071 C 249.098 52.023,249.124 52.084,249.076 52.208 C 248.964 52.501,250.286 54.549,250.502 54.415 C 250.593 54.359,250.667 54.455,250.667 54.627 C 250.667 55.180,253.768 57.458,254.263 57.268 C 254.403 57.214,254.475 57.238,254.424 57.321 C 254.307 57.511,255.929 58.063,256.245 57.941 C 256.374 57.892,256.502 57.917,256.531 57.996 C 256.598 58.180,258.033 58.269,258.298 58.105 C 258.409 58.036,258.500 58.060,258.500 58.157 C 258.500 58.381,259.612 58.390,259.750 58.166 C 259.818 58.057,259.958 58.055,260.154 58.160 C 260.362 58.271,260.548 58.252,260.762 58.095 C 260.931 57.972,261.154 57.903,261.258 57.943 C 261.516 58.042,262.692 56.807,262.591 56.544 C 262.547 56.428,262.583 56.333,262.672 56.333 C 262.947 56.333,262.861 54.719,262.571 54.429 C 262.420 54.277,262.389 54.167,262.498 54.167 C 262.602 54.167,262.639 54.090,262.582 53.997 C 262.524 53.904,262.396 53.878,262.296 53.940 C 262.197 54.001,262.162 53.976,262.219 53.883 C 262.333 53.699,261.800 53.153,261.210 52.849 C 260.994 52.738,260.177 52.667,259.275 52.680 C 258.401 52.693,257.561 52.622,257.368 52.518 C 256.925 52.281,256.783 52.284,256.933 52.526 C 256.998 52.632,256.684 52.464,256.234 52.153 C 255.784 51.842,255.360 51.586,255.292 51.585 C 255.223 51.584,255.160 51.508,255.152 51.417 C 255.128 51.124,254.802 50.833,254.622 50.944 C 254.521 51.007,254.498 50.971,254.568 50.858 C 254.635 50.750,254.573 50.620,254.428 50.565 C 254.285 50.510,254.208 50.401,254.257 50.322 C 254.306 50.243,254.212 50.043,254.048 49.878 C 253.884 49.712,253.729 49.428,253.704 49.246 C 253.679 49.065,253.566 48.651,253.454 48.327 C 253.301 47.885,253.261 45.649,253.295 39.434 L 253.340 31.131 256.545 31.170 C 258.308 31.191,259.787 31.194,259.833 31.175 C 259.879 31.156,260.056 31.115,260.226 31.083 C 260.590 31.014,261.192 30.415,261.046 30.268 C 260.990 30.212,261.028 30.167,261.131 30.167 C 261.755 30.167,261.643 28.101,260.981 27.396 C 260.208 26.574,259.839 26.500,256.486 26.500 L 253.356 26.500 253.303 21.617 C 253.254 17.139,253.224 16.694,252.930 16.242 C 252.328 15.315,251.941 15.086,251.083 15.155 C 250.816 15.176,250.797 15.150,250.991 15.019 C 251.364 14.767,249.835 14.858,249.333 15.118 M233.148 24.901 C 233.113 24.934,232.633 25.007,232.083 25.064 C 229.914 25.290,226.155 26.577,226.418 27.003 C 226.473 27.091,226.417 27.124,226.295 27.078 C 226.068 26.990,224.617 28.134,223.792 29.051 L 223.333 29.560 223.332 28.655 C 223.331 27.109,222.556 25.406,222.009 25.745 C 221.912 25.804,221.833 25.786,221.833 25.704 C 221.833 25.622,221.740 25.547,221.625 25.536 C 221.510 25.525,221.049 25.468,220.599 25.410 C 219.289 25.242,217.787 26.253,217.928 27.208 C 217.951 27.369,217.921 27.500,217.860 27.500 C 217.782 27.500,217.759 49.783,217.830 56.552 C 217.832 56.717,217.907 56.807,217.998 56.751 C 218.089 56.695,218.124 56.750,218.077 56.872 C 217.712 57.824,220.977 58.673,221.900 57.866 C 222.143 57.654,222.189 57.646,222.083 57.833 C 221.996 57.989,222.096 57.957,222.346 57.750 C 222.919 57.277,223.014 57.122,222.934 56.791 C 222.896 56.631,222.924 56.536,222.996 56.581 C 223.274 56.753,223.316 55.464,223.341 46.000 C 223.369 35.510,223.367 35.644,223.482 35.760 C 223.525 35.803,223.667 35.518,223.798 35.127 C 223.929 34.736,224.309 34.081,224.643 33.671 C 224.977 33.261,225.250 32.874,225.250 32.810 C 225.250 32.746,225.318 32.632,225.402 32.556 C 225.492 32.473,225.496 32.518,225.411 32.667 C 225.289 32.882,225.309 32.885,225.550 32.689 C 225.704 32.564,225.789 32.396,225.738 32.314 C 225.688 32.233,225.801 32.167,225.990 32.167 C 226.199 32.167,226.333 32.058,226.333 31.889 C 226.333 31.736,226.378 31.656,226.433 31.711 C 226.488 31.766,226.920 31.602,227.392 31.347 C 227.864 31.091,228.287 30.881,228.333 30.878 C 228.604 30.864,230.520 30.269,230.574 30.182 C 230.677 30.015,234.837 30.127,235.667 30.319 C 236.545 30.521,237.833 30.555,237.833 30.375 C 237.834 30.306,238.038 30.238,238.287 30.224 C 238.802 30.194,239.568 29.417,239.432 29.063 C 239.383 28.936,239.409 28.833,239.489 28.833 C 239.699 28.833,239.666 27.654,239.442 27.167 C 239.220 26.686,238.813 26.326,238.623 26.444 C 238.551 26.488,238.512 26.427,238.538 26.307 C 238.589 26.062,237.627 25.534,236.997 25.463 C 236.770 25.438,236.540 25.358,236.487 25.287 C 236.434 25.215,235.732 25.120,234.926 25.076 C 234.120 25.032,233.405 24.961,233.337 24.919 C 233.269 24.877,233.184 24.869,233.148 24.901 M143.333 25.203 C 142.646 25.269,141.915 25.326,141.708 25.330 C 141.502 25.334,141.333 25.409,141.333 25.497 C 141.333 25.584,141.221 25.613,141.083 25.560 C 140.946 25.508,140.833 25.552,140.833 25.659 C 140.833 25.766,140.751 25.802,140.649 25.739 C 140.421 25.598,138.813 26.332,138.931 26.524 C 138.979 26.600,138.889 26.613,138.731 26.553 C 138.539 26.479,138.484 26.506,138.565 26.636 C 138.638 26.756,138.599 26.797,138.461 26.744 C 138.339 26.697,138.086 26.800,137.900 26.973 C 137.714 27.147,137.398 27.376,137.198 27.483 C 136.997 27.591,136.833 27.793,136.833 27.932 C 136.833 28.072,136.764 28.143,136.678 28.090 C 136.593 28.038,136.476 28.071,136.418 28.164 C 136.226 28.475,136.000 28.338,136.000 27.911 C 136.000 27.046,135.306 25.946,134.671 25.805 C 134.535 25.775,134.318 25.651,134.188 25.529 C 134.058 25.408,133.906 25.370,133.851 25.446 C 133.704 25.645,133.333 25.693,133.333 25.513 C 133.333 24.777,131.203 25.957,130.641 27.004 C 130.227 27.776,130.160 55.849,130.570 56.640 C 131.383 58.208,133.945 58.947,134.833 57.869 C 134.971 57.702,135.158 57.532,135.250 57.491 C 135.342 57.450,135.398 57.360,135.375 57.292 C 135.352 57.223,135.396 57.167,135.473 57.167 C 135.932 57.167,135.990 56.093,136.014 47.129 C 136.041 37.367,136.050 36.894,136.223 36.721 C 136.284 36.661,136.333 36.439,136.333 36.228 C 136.333 35.580,136.848 34.282,137.365 33.628 C 137.655 33.262,137.807 32.919,137.735 32.795 C 137.668 32.678,137.675 32.639,137.750 32.707 C 137.923 32.864,138.361 32.512,138.238 32.314 C 138.188 32.233,138.247 32.167,138.370 32.167 C 138.492 32.167,138.853 31.929,139.171 31.638 C 139.490 31.347,139.750 31.120,139.750 31.133 C 139.750 31.146,139.918 31.113,140.123 31.060 C 140.328 31.006,140.455 30.896,140.405 30.814 C 140.355 30.733,140.412 30.656,140.532 30.642 C 140.652 30.628,140.862 30.602,141.000 30.583 C 141.137 30.565,141.512 30.533,141.833 30.513 C 142.296 30.484,142.349 30.450,142.090 30.349 C 141.910 30.278,142.547 30.238,143.506 30.260 C 144.465 30.281,145.269 30.316,145.292 30.337 C 145.315 30.358,145.390 30.390,145.458 30.409 C 145.527 30.428,145.808 30.504,146.083 30.578 C 146.358 30.652,146.677 30.786,146.792 30.877 C 146.906 30.967,147.000 30.985,147.000 30.917 C 147.000 30.848,147.101 30.876,147.224 30.978 C 147.347 31.080,147.509 31.108,147.584 31.040 C 147.659 30.972,147.666 31.010,147.600 31.125 C 147.487 31.322,147.700 31.417,148.083 31.339 C 148.175 31.321,148.207 31.349,148.154 31.402 C 148.101 31.454,148.375 31.838,148.762 32.253 C 149.149 32.669,149.664 33.414,149.906 33.909 C 150.148 34.405,150.437 34.847,150.548 34.892 C 150.705 34.955,150.704 34.977,150.546 34.987 C 150.401 34.996,150.385 35.114,150.490 35.390 C 150.800 36.206,150.831 37.161,150.830 45.948 C 150.828 54.793,150.899 56.916,151.189 56.736 C 151.268 56.687,151.333 56.788,151.333 56.961 C 151.333 57.134,151.533 57.457,151.777 57.679 C 152.021 57.902,152.165 57.971,152.098 57.833 C 152.026 57.687,152.075 57.705,152.216 57.878 C 152.998 58.832,156.456 57.927,156.081 56.866 C 156.038 56.747,156.070 56.690,156.151 56.740 C 156.458 56.930,156.497 55.774,156.497 46.560 C 156.497 38.763,156.540 36.923,156.741 36.180 C 156.875 35.683,156.946 35.215,156.899 35.138 C 156.852 35.062,156.879 35.000,156.958 35.000 C 157.038 35.000,157.231 34.708,157.389 34.351 C 157.547 33.994,157.880 33.439,158.129 33.118 C 158.379 32.798,158.680 32.396,158.798 32.226 C 158.916 32.056,158.957 32.028,158.890 32.163 C 158.822 32.299,159.143 32.092,159.602 31.705 C 160.062 31.317,160.480 31.000,160.532 31.000 C 160.584 31.000,160.916 30.874,161.271 30.720 C 161.626 30.566,162.041 30.457,162.194 30.478 C 162.346 30.499,162.509 30.453,162.556 30.377 C 162.630 30.258,163.188 30.261,166.026 30.396 C 166.269 30.407,166.430 30.478,166.384 30.553 C 166.338 30.628,166.401 30.672,166.525 30.652 C 166.880 30.594,167.935 31.119,168.553 31.663 C 168.864 31.936,169.148 32.142,169.184 32.121 C 169.220 32.100,169.233 32.112,169.213 32.148 C 169.193 32.184,169.362 32.434,169.590 32.705 C 170.146 33.365,170.869 34.946,170.946 35.667 C 170.980 35.987,171.046 36.356,171.093 36.486 C 171.139 36.615,171.174 40.956,171.169 46.132 C 171.163 53.483,171.208 55.600,171.372 55.803 C 171.545 56.017,171.543 56.039,171.357 55.928 C 171.181 55.822,171.158 55.878,171.255 56.184 C 172.012 58.567,174.920 59.091,176.360 57.104 L 176.847 56.431 176.824 46.049 C 176.811 39.919,176.739 35.628,176.648 35.572 C 176.564 35.520,176.543 35.398,176.603 35.302 C 176.714 35.121,176.367 33.377,176.160 33.083 C 176.096 32.992,175.953 32.635,175.842 32.292 C 175.731 31.948,175.559 31.667,175.459 31.667 C 175.359 31.667,175.327 31.618,175.386 31.558 C 175.446 31.498,175.365 31.343,175.206 31.212 C 175.047 31.082,175.012 31.024,175.128 31.083 C 175.359 31.200,174.649 29.848,174.196 29.308 C 173.525 28.507,172.907 27.920,172.780 27.962 C 172.704 27.988,172.687 27.935,172.742 27.846 C 172.825 27.713,172.318 27.315,172.000 27.264 C 171.954 27.256,171.932 27.203,171.952 27.145 C 172.031 26.907,169.482 25.747,168.083 25.383 C 166.502 24.972,161.202 25.186,161.031 25.667 C 161.002 25.748,160.870 25.773,160.738 25.722 C 160.606 25.672,160.301 25.759,160.062 25.916 C 159.822 26.073,159.671 26.128,159.726 26.039 C 159.781 25.950,159.569 25.994,159.255 26.136 C 158.942 26.278,158.722 26.455,158.768 26.529 C 158.813 26.602,158.749 26.624,158.626 26.577 C 158.376 26.481,156.500 27.754,156.500 28.019 C 156.500 28.111,156.435 28.146,156.355 28.097 C 156.276 28.048,155.783 28.456,155.260 29.004 C 154.267 30.045,154.167 30.119,154.167 29.814 C 154.167 29.556,153.221 28.501,153.099 28.623 C 153.045 28.678,153.000 28.593,153.000 28.435 C 153.000 28.276,152.930 28.190,152.845 28.243 C 152.760 28.295,152.641 28.181,152.580 27.990 C 152.519 27.798,152.436 27.675,152.396 27.716 C 152.355 27.756,152.087 27.570,151.800 27.302 C 150.163 25.773,146.602 24.890,143.333 25.203 M196.947 25.108 C 196.900 25.155,196.178 25.206,195.341 25.222 C 194.262 25.242,193.780 25.316,193.681 25.477 C 193.595 25.616,193.516 25.635,193.479 25.528 C 193.410 25.333,191.198 25.861,191.019 26.115 C 190.963 26.196,190.804 26.269,190.667 26.278 C 190.149 26.313,189.674 26.544,189.778 26.711 C 189.837 26.807,189.806 26.836,189.711 26.777 C 189.496 26.645,188.000 27.459,188.000 27.709 C 188.000 27.808,187.952 27.841,187.894 27.783 C 187.595 27.484,184.454 30.335,183.523 31.750 C 183.281 32.117,182.989 32.516,182.874 32.638 C 182.758 32.760,182.706 32.929,182.758 33.013 C 182.810 33.098,182.775 33.167,182.680 33.167 C 182.525 33.167,181.891 34.224,181.855 34.543 C 181.847 34.613,181.720 34.902,181.574 35.185 C 181.428 35.468,181.278 35.823,181.242 35.975 C 181.206 36.126,181.104 36.546,181.015 36.907 C 180.926 37.269,180.898 37.637,180.953 37.725 C 181.007 37.813,180.969 37.834,180.869 37.772 C 180.764 37.707,180.683 37.785,180.678 37.955 C 180.657 38.725,180.531 39.649,180.423 39.822 C 180.358 39.928,180.395 40.124,180.506 40.257 C 180.641 40.420,180.648 40.500,180.526 40.500 C 180.313 40.500,180.420 44.049,180.660 44.917 C 180.685 45.008,180.696 45.143,180.684 45.216 C 180.672 45.288,180.813 45.955,180.998 46.697 C 181.182 47.439,181.333 48.077,181.333 48.116 C 181.333 48.155,181.420 48.133,181.526 48.067 C 181.650 47.991,181.673 48.022,181.590 48.155 C 181.520 48.269,181.576 48.599,181.714 48.889 C 182.571 50.687,182.918 51.333,183.027 51.333 C 183.095 51.333,183.269 51.583,183.414 51.887 C 183.719 52.530,186.527 55.490,186.859 55.520 C 186.983 55.531,187.145 55.529,187.221 55.516 C 187.296 55.502,187.315 55.561,187.263 55.646 C 187.156 55.819,188.737 56.889,189.100 56.889 C 189.228 56.889,189.333 56.959,189.333 57.046 C 189.333 57.132,189.450 57.158,189.592 57.103 C 189.734 57.048,189.810 57.070,189.760 57.151 C 189.650 57.329,190.134 57.540,190.348 57.407 C 190.432 57.356,190.500 57.385,190.500 57.472 C 190.500 57.612,191.116 57.865,191.583 57.918 C 191.675 57.928,191.938 58.002,192.167 58.081 C 192.396 58.161,192.814 58.237,193.095 58.251 C 193.377 58.266,193.681 58.322,193.770 58.378 C 194.001 58.520,198.333 58.504,198.333 58.361 C 198.333 58.296,198.615 58.225,198.958 58.204 C 199.980 58.141,200.830 57.973,200.928 57.815 C 200.978 57.733,201.149 57.667,201.306 57.667 C 201.620 57.667,204.027 56.554,204.165 56.346 C 204.212 56.275,204.421 56.127,204.630 56.017 C 204.838 55.907,204.964 55.744,204.909 55.654 C 204.854 55.565,204.870 55.502,204.946 55.516 C 205.376 55.590,206.270 54.992,206.053 54.775 C 205.993 54.715,206.064 54.667,206.211 54.667 C 206.358 54.667,206.525 54.518,206.582 54.337 C 206.640 54.155,206.776 54.024,206.885 54.045 C 206.994 54.066,207.065 53.990,207.042 53.875 C 207.019 53.760,207.065 53.685,207.145 53.708 C 207.224 53.731,207.447 53.563,207.639 53.333 L 207.989 52.917 207.994 54.708 C 207.998 55.855,208.064 56.500,208.177 56.500 C 208.274 56.500,208.311 56.567,208.261 56.649 C 208.127 56.866,209.191 57.988,209.583 58.045 C 209.767 58.071,209.995 58.142,210.091 58.202 C 210.187 58.262,210.369 58.248,210.494 58.170 C 210.620 58.093,210.878 58.088,211.069 58.160 C 211.468 58.310,212.167 58.099,212.167 57.829 C 212.167 57.729,212.232 57.687,212.312 57.737 C 212.392 57.786,212.627 57.679,212.834 57.499 C 213.273 57.118,213.775 56.254,213.451 56.436 C 213.305 56.518,213.307 56.487,213.458 56.324 C 213.741 56.020,213.764 40.246,213.482 40.072 C 213.351 39.991,213.357 39.922,213.504 39.831 C 213.625 39.756,213.654 39.614,213.574 39.485 C 213.445 39.276,213.349 38.751,213.324 38.125 C 213.318 37.965,213.230 37.833,213.129 37.833 C 213.027 37.833,212.986 37.792,213.036 37.742 C 213.141 37.637,212.901 36.416,212.679 35.917 C 212.597 35.733,212.392 35.227,212.223 34.792 C 212.055 34.357,211.860 34.001,211.792 34.001 C 211.723 34.000,211.667 33.891,211.667 33.758 C 211.667 33.625,211.535 33.440,211.375 33.347 C 211.215 33.253,211.142 33.175,211.213 33.172 C 211.284 33.169,211.224 32.939,211.081 32.661 C 210.937 32.383,210.748 32.200,210.661 32.253 C 210.575 32.307,210.547 32.239,210.599 32.102 C 210.659 31.947,210.409 31.566,209.935 31.093 C 209.517 30.675,209.210 30.333,209.253 30.333 C 209.295 30.333,209.202 30.183,209.045 30.000 C 208.888 29.817,208.661 29.667,208.541 29.667 C 208.421 29.667,208.283 29.562,208.233 29.433 C 208.126 29.154,206.628 27.867,206.330 27.798 C 206.216 27.772,205.930 27.579,205.697 27.369 C 205.463 27.159,205.184 27.022,205.077 27.063 C 204.970 27.104,204.754 26.988,204.598 26.805 C 204.441 26.622,204.205 26.514,204.073 26.564 C 203.941 26.615,203.833 26.585,203.833 26.497 C 203.833 26.312,202.658 25.787,202.530 25.914 C 202.483 25.962,202.544 26.000,202.667 26.000 C 202.789 26.000,202.839 26.050,202.779 26.110 C 202.718 26.171,202.537 26.106,202.376 25.967 C 201.953 25.601,200.650 25.322,198.923 25.230 C 198.094 25.185,197.330 25.120,197.225 25.086 C 197.119 25.051,196.994 25.061,196.947 25.108 M198.167 30.128 C 198.579 30.159,199.217 30.263,199.583 30.359 C 199.950 30.455,200.418 30.534,200.624 30.535 C 200.830 30.535,200.965 30.589,200.925 30.654 C 200.884 30.719,201.108 30.888,201.422 31.031 C 201.759 31.184,201.955 31.213,201.901 31.103 C 201.850 31.000,201.908 31.029,202.030 31.167 C 202.368 31.549,203.270 32.006,203.420 31.871 C 203.493 31.804,203.502 31.840,203.439 31.950 C 203.307 32.179,203.886 32.552,204.088 32.369 C 204.161 32.304,204.171 32.335,204.112 32.439 C 204.052 32.544,204.115 32.722,204.252 32.835 C 204.388 32.948,204.501 32.975,204.502 32.895 C 204.504 32.815,204.604 32.938,204.724 33.167 C 204.845 33.396,205.050 33.558,205.180 33.528 C 205.310 33.497,205.363 33.526,205.298 33.591 C 205.233 33.656,205.431 34.019,205.739 34.396 C 206.047 34.774,206.415 35.365,206.557 35.708 C 206.700 36.052,206.883 36.333,206.964 36.333 C 207.045 36.333,207.114 36.427,207.119 36.542 C 207.123 36.656,207.323 37.342,207.564 38.065 C 207.943 39.204,208.294 41.687,208.192 42.500 C 208.174 42.637,208.132 43.060,208.098 43.438 C 208.063 43.816,207.987 44.279,207.927 44.466 C 207.868 44.654,207.781 44.981,207.733 45.195 C 207.497 46.261,206.809 47.806,206.219 48.598 C 206.008 48.881,205.891 49.169,205.959 49.237 C 206.027 49.305,205.998 49.336,205.893 49.306 C 205.788 49.275,205.319 49.686,204.851 50.218 C 204.383 50.750,204.000 51.135,204.000 51.073 C 204.000 51.010,203.888 51.052,203.752 51.165 C 203.615 51.278,203.552 51.449,203.611 51.545 C 203.677 51.651,203.636 51.668,203.507 51.588 C 203.391 51.516,203.248 51.527,203.190 51.612 C 203.063 51.798,201.786 52.589,201.667 52.556 C 201.621 52.544,201.597 52.585,201.613 52.649 C 201.630 52.712,201.407 52.782,201.117 52.804 C 200.828 52.826,200.440 52.939,200.254 53.054 C 200.068 53.170,199.748 53.252,199.542 53.238 C 199.335 53.224,199.167 53.258,199.166 53.314 C 199.166 53.371,198.590 53.437,197.886 53.461 C 197.182 53.485,196.570 53.541,196.527 53.584 C 196.483 53.628,196.341 53.575,196.211 53.468 C 196.027 53.315,195.941 53.324,195.823 53.511 C 195.728 53.661,195.671 53.676,195.669 53.551 C 195.668 53.442,195.518 53.381,195.337 53.416 C 195.155 53.451,194.968 53.416,194.919 53.338 C 194.871 53.260,194.645 53.217,194.416 53.242 C 194.187 53.267,194.000 53.231,194.000 53.162 C 194.000 53.060,193.157 52.816,192.619 52.763 C 192.547 52.756,192.434 52.664,192.369 52.558 C 192.304 52.453,192.103 52.340,191.924 52.308 C 191.744 52.276,191.463 52.119,191.299 51.958 C 191.134 51.798,190.887 51.667,190.750 51.667 C 190.612 51.667,190.500 51.594,190.500 51.506 C 190.500 51.418,190.031 50.955,189.458 50.479 C 188.885 50.002,188.431 49.568,188.449 49.514 C 188.466 49.461,188.279 49.192,188.033 48.917 C 187.787 48.642,187.605 48.358,187.628 48.287 C 187.651 48.216,187.557 48.114,187.419 48.061 C 187.281 48.008,187.209 47.900,187.258 47.820 C 187.308 47.740,187.159 47.335,186.927 46.920 C 186.696 46.506,186.544 46.167,186.589 46.167 C 186.634 46.167,186.569 45.923,186.445 45.625 C 186.321 45.327,186.169 44.821,186.109 44.500 C 186.048 44.179,185.954 43.729,185.900 43.500 C 185.846 43.271,185.811 42.868,185.822 42.605 C 185.833 42.343,185.746 42.009,185.629 41.865 C 185.451 41.645,185.457 41.625,185.667 41.742 C 185.868 41.855,185.877 41.839,185.712 41.662 C 185.577 41.516,185.563 41.375,185.670 41.246 C 185.759 41.138,185.854 40.608,185.880 40.067 C 185.906 39.526,185.978 39.002,186.040 38.903 C 186.102 38.803,186.195 38.479,186.247 38.181 C 186.300 37.884,186.445 37.478,186.571 37.279 C 186.696 37.080,186.851 36.741,186.915 36.527 C 187.125 35.824,188.450 34.097,189.527 33.122 C 191.211 31.596,191.332 31.500,191.579 31.500 C 191.708 31.500,191.856 31.431,191.909 31.346 C 191.961 31.262,192.229 31.143,192.503 31.083 C 192.778 31.022,192.970 30.920,192.930 30.855 C 192.890 30.791,192.984 30.724,193.137 30.706 C 193.977 30.610,194.667 30.450,194.667 30.351 C 194.667 30.289,194.798 30.230,194.958 30.221 C 196.612 30.125,197.000 30.074,197.000 29.954 C 197.000 29.877,197.094 29.872,197.208 29.942 C 197.323 30.013,197.754 30.097,198.167 30.128 M26.783 32.946 C 26.729 33.034,26.648 33.306,26.604 33.551 C 26.559 33.795,26.484 34.057,26.437 34.134 C 26.302 34.352,25.947 36.144,25.786 37.417 L 25.722 37.917 20.486 38.000 C 14.229 38.100,14.657 37.970,12.250 40.498 C 12.158 40.595,11.577 41.163,10.958 41.761 C 10.340 42.359,9.833 42.907,9.833 42.979 C 9.833 43.051,9.646 43.211,9.417 43.333 C 9.188 43.456,9.000 43.647,9.000 43.758 C 9.000 43.869,8.873 44.062,8.718 44.188 C 8.475 44.385,8.455 44.382,8.576 44.167 C 8.653 44.029,8.408 44.210,8.031 44.569 C 7.655 44.927,7.383 45.278,7.426 45.348 C 7.469 45.419,7.348 45.526,7.157 45.586 C 6.921 45.661,6.843 45.784,6.913 45.968 C 6.971 46.118,6.965 46.187,6.900 46.123 C 6.836 46.058,6.696 46.124,6.590 46.270 C 6.432 46.484,6.405 46.414,6.440 45.892 L 6.485 45.250 6.357 45.833 C 6.286 46.154,5.742 47.167,5.147 48.083 C 3.888 50.025,3.444 50.726,1.801 53.363 C 0.865 54.867,0.540 55.269,0.375 55.132 C 0.208 54.993,0.189 55.025,0.289 55.274 C 0.944 56.910,3.073 57.732,4.667 56.964 C 4.987 56.809,7.987 53.941,11.332 50.591 L 17.415 44.500 21.506 44.500 L 25.596 44.500 25.873 46.042 C 26.191 47.813,26.227 47.985,26.499 49.001 C 26.767 50.002,27.846 52.859,28.063 53.142 C 28.158 53.266,28.249 53.461,28.266 53.575 C 28.283 53.690,28.418 54.001,28.565 54.267 L 28.834 54.750 28.732 54.292 C 28.609 53.737,28.654 53.734,32.778 54.022 C 36.021 54.248,36.149 54.222,35.632 53.434 C 35.426 53.119,35.200 52.896,35.130 52.939 C 35.061 52.982,35.046 52.909,35.097 52.776 C 35.148 52.643,35.117 52.489,35.029 52.435 C 34.221 51.935,32.364 46.341,31.981 43.250 C 31.805 41.839,31.933 38.437,32.179 37.977 C 32.259 37.828,32.363 37.415,32.411 37.061 C 32.563 35.921,32.683 35.420,32.843 35.258 C 32.929 35.171,33.000 34.894,33.000 34.643 C 33.000 34.392,33.072 34.142,33.159 34.088 C 33.247 34.034,33.280 33.889,33.233 33.766 C 33.186 33.643,33.270 33.421,33.419 33.271 C 33.670 33.021,33.573 33.000,32.137 32.999 C 31.282 32.999,29.751 32.951,28.733 32.892 C 27.603 32.827,26.844 32.848,26.783 32.946 M75.494 34.996 C 75.582 35.051,75.695 35.355,75.743 35.673 C 75.792 35.990,75.942 36.925,76.077 37.750 C 76.931 42.988,75.556 49.384,72.675 53.572 C 72.403 53.967,72.214 54.338,72.257 54.395 C 72.299 54.453,72.284 54.464,72.224 54.419 C 72.165 54.374,71.940 54.581,71.726 54.877 C 71.512 55.174,70.792 55.974,70.127 56.654 L 68.917 57.892 70.155 56.754 L 71.393 55.616 74.507 55.724 C 77.781 55.838,78.720 55.945,78.571 56.187 C 78.521 56.267,78.520 56.333,78.568 56.333 C 78.616 56.333,78.740 56.174,78.844 55.980 C 78.997 55.695,78.990 55.649,78.808 55.742 C 78.685 55.806,78.706 55.756,78.857 55.632 C 79.709 54.928,81.523 50.550,82.190 47.583 C 82.768 45.013,83.008 39.573,82.626 37.683 C 82.541 37.261,82.454 36.729,82.432 36.500 C 82.340 35.539,82.011 35.191,81.102 35.097 C 79.813 34.963,75.310 34.882,75.494 34.996 " stroke="none" fill="#3b9bf4" fill-rule="evenodd"></path><path id="path2" d="M55.355 3.750 C 55.381 3.933,55.211 4.383,54.977 4.750 C 54.743 5.117,54.133 6.092,53.622 6.917 C 51.528 10.300,51.168 10.785,51.155 10.242 C 51.119 8.713,50.855 9.306,50.845 10.941 C 50.832 12.970,50.817 13.000,49.789 13.000 C 48.573 13.000,44.025 14.318,42.507 15.110 C 42.274 15.232,42.037 15.332,41.981 15.332 C 41.891 15.333,39.462 16.680,38.586 17.215 C 33.524 20.307,28.795 26.446,26.876 32.417 L 26.715 32.917 30.149 32.971 L 33.583 33.025 33.990 32.137 C 37.267 24.989,44.330 20.037,52.500 19.161 C 56.005 18.785,61.329 19.921,64.417 21.704 C 64.600 21.809,65.087 22.085,65.500 22.316 C 69.573 24.596,73.299 29.093,74.994 33.772 C 75.435 34.991,75.445 34.994,78.667 35.000 C 81.295 35.005,81.913 35.104,82.154 35.561 C 82.333 35.899,82.337 35.896,82.247 35.500 C 82.194 35.271,82.123 34.933,82.088 34.750 C 81.914 33.838,81.787 33.378,81.314 31.958 C 80.455 29.377,78.273 25.353,76.801 23.635 C 76.590 23.388,76.168 22.888,75.863 22.524 C 74.027 20.324,68.071 15.667,67.095 15.667 C 67.056 15.667,66.475 15.416,65.804 15.110 C 65.133 14.803,64.021 14.381,63.333 14.172 C 62.646 13.963,61.933 13.734,61.750 13.664 C 61.091 13.412,60.065 13.188,59.083 13.081 C 57.424 12.901,57.564 13.141,57.446 10.289 C 57.316 7.173,57.022 6.082,55.801 4.182 C 55.519 3.744,55.328 3.559,55.355 3.750 M75.503 35.264 C 75.504 35.440,75.581 35.696,75.674 35.833 C 75.798 36.016,75.813 35.948,75.732 35.583 C 75.595 34.971,75.499 34.837,75.503 35.264 M31.872 42.167 C 31.872 42.487,31.906 42.619,31.948 42.458 C 31.990 42.298,31.990 42.035,31.948 41.875 C 31.906 41.715,31.872 41.846,31.872 42.167 " stroke="none" fill="#1f86ec" fill-rule="evenodd"></path><path id="path3" d="M7.083 0.266 C 6.249 0.492,4.584 1.256,4.226 1.578 C 4.121 1.673,3.793 1.938,3.498 2.167 C 3.203 2.396,2.876 2.681,2.772 2.799 C 2.668 2.918,2.426 3.181,2.235 3.383 C 1.828 3.811,0.938 5.267,0.787 5.750 C -0.045 8.415,0.009 7.133,0.021 24.167 C 0.028 32.829,0.093 40.104,0.167 40.333 C 0.299 40.746,0.300 40.745,0.317 40.260 C 0.331 39.844,0.958 38.658,2.000 37.076 C 2.392 36.481,4.837 32.622,5.667 31.289 L 6.417 30.083 6.506 19.500 C 6.598 8.708,6.618 8.374,7.231 7.692 C 8.267 6.540,7.934 6.592,14.933 6.500 C 22.214 6.404,21.420 6.613,22.749 4.448 C 23.266 3.606,24.066 2.325,24.526 1.603 C 25.176 0.583,25.314 0.257,25.140 0.147 C 24.745 -0.104,8.044 0.007,7.083 0.266 M36.623 63.973 C 36.921 64.263,37.243 64.500,37.339 64.500 C 37.436 64.500,37.699 64.684,37.924 64.909 C 38.149 65.134,38.333 65.285,38.333 65.244 C 38.333 65.202,38.844 65.496,39.469 65.897 C 40.093 66.297,40.768 66.676,40.969 66.740 C 41.169 66.804,41.333 66.926,41.333 67.011 C 41.333 67.097,41.479 67.167,41.657 67.167 C 41.835 67.167,42.027 67.243,42.085 67.336 C 42.143 67.429,42.260 67.462,42.345 67.410 C 42.430 67.357,42.500 67.393,42.500 67.490 C 42.500 67.587,42.635 67.667,42.800 67.667 C 42.965 67.667,43.171 67.730,43.258 67.807 C 43.442 67.971,45.464 68.735,45.833 68.781 C 45.971 68.798,46.683 68.967,47.417 69.157 C 50.224 69.885,53.723 70.141,56.793 69.844 C 59.148 69.617,58.981 69.645,60.833 69.169 C 61.612 68.968,62.380 68.806,62.538 68.808 C 62.697 68.810,62.870 68.742,62.923 68.656 C 62.976 68.570,63.168 68.500,63.349 68.500 C 63.530 68.500,63.859 68.381,64.081 68.237 C 64.302 68.092,64.580 67.957,64.700 67.937 C 64.819 67.917,65.067 67.818,65.250 67.717 C 65.433 67.616,65.621 67.531,65.667 67.528 C 65.924 67.514,66.780 67.108,67.230 66.788 C 67.516 66.585,67.768 66.434,67.790 66.454 C 67.849 66.508,68.403 66.290,68.500 66.175 C 68.663 65.981,69.585 65.426,69.693 65.458 C 69.753 65.475,69.844 65.379,69.896 65.245 C 69.947 65.110,69.936 64.998,69.870 64.996 C 66.253 64.864,56.002 64.452,53.500 64.338 C 51.621 64.252,47.018 64.065,43.272 63.922 C 39.526 63.779,36.376 63.614,36.272 63.554 C 36.168 63.494,36.326 63.682,36.623 63.973 M73.167 64.910 C 73.167 65.020,74.573 66.398,74.637 66.351 C 74.666 66.329,74.942 66.579,75.250 66.906 C 75.559 67.233,75.776 67.500,75.732 67.500 C 75.689 67.500,75.750 67.605,75.868 67.733 C 75.987 67.860,76.140 67.931,76.208 67.889 C 76.277 67.848,76.333 67.888,76.333 67.979 C 76.333 68.210,79.623 71.489,79.738 71.373 C 79.791 71.320,79.833 71.362,79.833 71.466 C 79.833 71.569,80.152 71.957,80.542 72.329 C 80.931 72.700,81.325 73.081,81.417 73.175 C 84.999 76.861,86.866 77.349,88.616 75.055 C 89.141 74.367,89.338 71.697,88.875 71.542 C 88.760 71.504,88.667 71.395,88.667 71.301 C 88.667 71.112,84.553 67.000,84.364 67.000 C 84.299 67.000,84.169 66.831,84.075 66.625 C 83.981 66.419,83.811 66.269,83.698 66.293 C 83.584 66.317,83.335 66.073,83.146 65.752 C 82.956 65.430,82.766 65.167,82.724 65.167 C 82.682 65.167,82.693 65.242,82.750 65.333 C 82.968 65.686,73.973 65.341,73.592 64.982 C 73.424 64.825,73.167 64.781,73.167 64.910 " stroke="none" fill="#4ea9fc" fill-rule="evenodd"></path><path id="path4" d="M25.140 0.147 C 25.314 0.257,25.176 0.583,24.526 1.603 C 24.066 2.325,23.266 3.606,22.749 4.448 C 21.625 6.280,21.610 6.293,20.663 6.376 C 20.253 6.412,22.364 6.455,25.354 6.471 C 31.114 6.502,31.744 6.459,31.906 6.024 C 32.028 5.697,32.101 5.577,33.996 2.583 C 35.232 0.631,35.427 0.232,35.195 0.137 C 34.784 -0.030,24.876 -0.020,25.140 0.147 M217.746 41.833 C 217.746 49.396,217.767 52.490,217.792 48.708 C 217.817 44.927,217.817 38.740,217.792 34.958 C 217.767 31.177,217.746 34.271,217.746 41.833 M6.361 29.833 C 6.341 30.063,6.007 30.755,5.620 31.371 C 4.630 32.949,2.299 36.623,2.000 37.076 C 0.958 38.658,0.331 39.844,0.317 40.260 C 0.300 40.746,0.299 40.747,0.163 40.333 C 0.087 40.103,0.028 43.247,0.031 47.365 C 0.037 56.038,0.070 56.231,1.212 54.288 C 1.548 53.717,2.294 52.522,2.869 51.631 C 3.445 50.741,4.440 49.191,5.079 48.186 C 5.719 47.182,6.295 46.393,6.359 46.433 C 6.424 46.473,6.531 46.418,6.598 46.310 C 6.664 46.203,6.650 46.157,6.567 46.208 C 6.478 46.264,6.438 43.336,6.468 39.026 C 6.514 32.556,6.468 28.638,6.361 29.833 M245.292 31.290 C 245.773 31.323,246.560 31.323,247.042 31.290 C 247.523 31.256,247.129 31.228,246.167 31.228 C 245.204 31.228,244.810 31.256,245.292 31.290 M254.717 31.291 C 255.523 31.321,256.798 31.321,257.550 31.291 C 258.302 31.260,257.642 31.235,256.083 31.235 C 254.525 31.235,253.910 31.260,254.717 31.291 M185.654 41.208 C 185.557 41.525,185.553 41.847,185.646 41.904 C 185.710 41.944,185.778 41.794,185.796 41.571 C 185.822 41.255,185.720 40.993,185.654 41.208 M28.667 53.991 C 28.667 54.337,29.368 55.833,29.530 55.833 C 29.616 55.833,29.647 55.897,29.599 55.975 C 29.551 56.053,29.644 56.259,29.807 56.433 C 29.969 56.607,30.126 56.825,30.155 56.917 C 30.213 57.098,31.169 58.531,31.322 58.667 C 31.374 58.712,31.717 59.125,32.083 59.583 C 33.240 61.029,35.849 63.531,36.297 63.623 C 36.403 63.645,39.549 63.780,43.287 63.923 C 47.025 64.065,51.621 64.252,53.500 64.338 C 55.988 64.451,68.136 64.939,69.885 64.996 C 69.959 64.998,69.969 65.082,69.906 65.183 C 69.828 65.310,69.903 65.308,70.151 65.175 C 70.348 65.070,70.458 64.900,70.396 64.799 C 70.332 64.696,70.357 64.662,70.453 64.721 C 70.603 64.814,70.800 64.693,71.618 64.003 C 71.934 63.737,72.176 63.800,72.522 64.240 C 73.203 65.106,77.025 65.636,81.405 65.472 L 82.893 65.417 79.763 62.296 L 76.634 59.175 77.020 58.546 C 77.232 58.200,77.546 57.767,77.718 57.583 C 77.889 57.400,78.170 56.978,78.341 56.645 L 78.654 56.039 78.118 55.929 C 77.412 55.783,70.892 55.615,71.023 55.745 C 71.110 55.832,70.195 56.767,68.667 58.152 C 68.085 58.678,65.371 60.500,65.168 60.500 C 65.075 60.500,65.000 60.564,65.000 60.641 C 65.000 60.787,64.881 60.842,62.156 61.962 C 60.791 62.524,60.024 62.759,59.250 62.853 C 59.158 62.864,58.913 62.938,58.705 63.017 C 57.432 63.501,50.599 63.557,49.843 63.089 C 49.776 63.048,49.466 62.970,49.153 62.916 C 48.449 62.793,45.862 61.915,45.222 61.581 C 44.962 61.446,44.700 61.335,44.640 61.334 C 43.900 61.327,39.139 57.871,37.806 56.374 C 37.746 56.306,37.465 56.000,37.181 55.696 C 36.898 55.391,36.667 55.072,36.667 54.987 C 36.667 54.903,36.604 54.833,36.528 54.833 C 36.452 54.833,36.299 54.665,36.189 54.458 C 36.009 54.123,35.862 54.083,34.786 54.083 C 34.124 54.083,32.477 54.018,31.125 53.938 C 29.259 53.828,28.667 53.841,28.667 53.991 M210.264 58.189 C 210.313 58.268,210.586 58.333,210.871 58.333 C 211.514 58.333,211.404 58.188,210.698 58.106 C 210.410 58.072,210.215 58.110,210.264 58.189 M220.081 58.181 C 219.829 58.279,219.899 58.313,220.375 58.322 C 220.719 58.328,221.000 58.305,221.000 58.269 C 221.000 58.121,220.386 58.062,220.081 58.181 " stroke="none" fill="#43a4fb" fill-rule="evenodd"></path></g></svg>